<svg xmlns="http://www.w3.org/2000/svg" width="683" height="611" viewBox="0 0 683 611" fill="none"><path d="M522.53 378.061C519.215 379.154 515.811 380.209 512.342 381.232C504.665 357.051 494.303 331.338 481.627 304.775C493.726 278.839 503.685 253.457 511.148 229.431C517.352 231.221 523.376 233.104 529.179 235.094C585.311 254.317 619.548 282.744 619.548 304.646C619.548 327.978 582.567 358.267 522.53 378.061Z" fill="#FFD74B"></path><path d="M497.618 427.178C503.688 457.686 504.555 485.27 500.534 506.833C496.921 526.208 489.656 539.125 480.674 544.299C461.558 555.309 420.677 540.997 376.594 503.251C371.539 498.924 366.446 494.303 361.341 489.415C378.432 470.814 395.513 449.19 412.184 425.178C441.508 422.59 469.212 418.356 494.335 412.579C495.57 417.547 496.671 422.416 497.618 427.178Z" fill="#FFD74B"></path><path d="M245.685 542.397C227.009 548.96 212.135 549.147 203.145 543.989C184.01 533.011 176.059 490.622 186.907 433.77C188.196 427.052 189.673 420.37 191.336 413.733C216.18 419.2 243.682 423.134 273.077 425.506C289.857 449.003 307.432 470.601 325.144 489.514C321.38 493.137 317.526 496.667 313.587 500.102C290.053 520.572 266.468 535.092 245.685 542.397Z" fill="#FFD74B"></path><path d="M158.191 377.917C128.614 367.858 104.189 354.786 87.4457 340.523C72.4022 327.702 64.8052 314.975 64.8052 304.646C64.8052 282.672 97.7351 254.64 152.656 235.588C159.549 233.207 166.511 231.027 173.533 229.052C181.124 253.617 191.081 279.301 203.096 305.274C190.925 331.634 180.826 357.727 173.165 382.581C168.136 381.148 163.143 379.594 158.191 377.917Z" fill="#FFD74B"></path><path d="M187.521 179.275C176.12 121.307 183.691 77.5797 202.742 66.6072C223.036 54.919 267.906 71.586 315.201 113.368C318.223 116.039 321.259 118.836 324.301 121.729C306.68 140.556 289.266 161.991 272.631 185.352C244.104 187.983 216.795 192.208 191.69 197.868C190.144 191.705 188.754 185.508 187.521 179.275Z" fill="#FFD74B"></path><path d="M449.165 243.558C443.235 233.367 437.085 223.304 430.72 213.376C450.074 215.806 468.616 219.038 486.027 222.994C480.8 239.664 474.285 257.095 466.613 274.964C461.008 264.381 455.19 253.91 449.165 243.558Z" fill="#FFD74B"></path><path d="M342.466 140.153C354.418 153.035 366.387 167.421 378.161 183.028C354.278 181.905 330.355 181.9 306.471 183.012C318.256 167.55 330.328 153.185 342.466 140.153Z" fill="#FFD74B"></path><path d="M235.084 243.734C229.134 254.004 223.425 264.41 217.963 274.945C210.417 257.137 203.961 239.629 198.688 222.722C215.995 218.867 234.45 215.718 253.679 213.328C247.242 223.317 241.042 233.455 235.084 243.734Z" fill="#FFD74B"></path><path d="M254.232 397.805C234.367 395.599 215.633 392.61 198.331 388.863C203.687 371.656 210.285 353.771 217.992 335.582C223.478 346.124 229.211 356.537 235.189 366.811C241.288 377.292 247.638 387.626 254.232 397.805Z" fill="#FFD74B"></path><path d="M343.183 470.961C330.902 457.775 318.653 443.191 306.688 427.504C318.301 427.958 330.142 428.188 342.177 428.188C354.541 428.188 366.763 427.913 378.792 427.379C366.981 443.351 355.054 457.956 343.183 470.961Z" fill="#FFD74B"></path><path d="M466.86 334.655C474.967 353.042 481.802 370.831 487.23 387.746C469.641 391.74 450.654 394.955 430.647 397.343C437.059 387.23 443.267 376.991 449.269 366.632C455.371 356.104 461.236 345.443 466.86 334.655Z" fill="#FFD74B"></path><path fill-rule="evenodd" clip-rule="evenodd" d="M426.822 353.753C417.634 369.634 407.929 385.214 397.723 400.468C379.726 401.748 361.129 402.408 342.177 402.408C323.302 402.408 304.941 401.823 287.259 400.682C276.788 385.464 266.899 369.856 257.614 353.894C248.373 338.017 239.741 321.796 231.736 305.266C239.72 288.732 248.326 272.502 257.537 256.611C266.744 240.717 276.554 225.182 286.947 210.029C304.986 208.672 323.482 207.962 342.179 207.962C360.959 207.962 379.479 208.678 397.513 210.045C407.801 225.175 417.549 240.661 426.739 256.475C435.981 272.33 444.701 288.481 452.888 304.9C444.786 321.487 436.09 337.781 426.822 353.753ZM396.341 304.647C396.341 274.884 372.093 250.754 342.177 250.754C312.265 250.754 288.014 274.884 288.014 304.647C288.014 334.413 312.265 358.543 342.177 358.543C372.093 358.543 396.341 334.413 396.341 304.647Z" fill="#FFD74B"></path><path d="M480.277 65.8407C500.587 77.4969 508.488 124.498 495.726 186.137C494.889 190.152 493.98 194.152 492.999 198.135C467.835 192.358 440.507 188.057 411.897 185.386C395.229 161.772 377.96 140.3 360.624 121.715C365.167 117.358 369.818 113.113 374.572 108.985C419.354 70.2078 461.207 54.8976 480.277 65.8407Z" fill="#FFD74B"></path><path fill-rule="evenodd" clip-rule="evenodd" d="M129.773 430.641C50.368 403.635 0 355.725 0 304.402C0 254.473 53.0471 210.121 129.773 183.504C113.866 102.608 126.308 37.4219 169.914 12.3065C215.138 -13.7411 277.484 3.79398 342.501 61.2312C404.995 7.1167 467.964 -14.7107 511.61 10.3326C556.883 36.3081 571.746 98.7747 554.204 184.068C632.541 210.901 683 254.27 683 304.402C683 356.401 636.737 397.254 554.029 424.461C570.324 506.369 556.748 574.731 512.106 600.445C468.672 625.461 406.428 604.708 344.839 551.971C281.656 606.927 215.087 624.676 170.405 599.034C126.933 574.09 113.917 510.069 129.773 430.641ZM518.089 204.591C524.649 206.468 531.159 208.509 537.616 210.713C603.127 233.152 645.46 268.302 645.46 304.646C645.46 342.55 600.219 379.61 530.682 402.533C527.007 403.746 523.241 404.91 519.402 406.037C520.771 411.518 521.992 416.9 523.039 422.17C536.767 491.164 526.196 547.872 493.661 566.612C462.159 584.756 411.246 566.932 359.694 522.794C354.09 517.985 348.623 513.021 343.297 507.909C339.069 511.977 334.847 515.858 330.64 519.517C277.418 565.805 222.763 585.01 190.198 566.326C158.67 548.23 148.761 495.443 161.448 428.962C162.834 421.737 164.423 414.552 166.213 407.415C160.704 405.851 155.235 404.15 149.811 402.314C82.9202 379.568 38.8954 342.051 38.8954 304.646C38.8954 268.433 79.9083 233.518 144.125 211.242C151.304 208.752 158.807 206.412 166.575 204.217C164.911 197.592 163.416 190.927 162.092 184.227C148.786 116.571 158.149 62.5019 189.761 44.2937C222.728 25.3056 277.633 45.696 332.409 94.0891C335.816 97.1058 339.167 100.185 342.46 103.325C347.376 98.6028 352.412 94.0045 357.562 89.535C409.828 44.2803 461.579 25.3483 493.22 43.5058C526.223 62.4378 535.887 119.95 521.106 191.34C520.183 195.775 519.177 200.193 518.089 204.591Z" fill="#FFD74B"></path></svg>